# xmcd CD database file
#
# Track frame offsets:
#	150
#	16287
#	32649
#	45713
#	65119
#	85316
#	103579
#	118810
#	137993
#	153683
#	179610
#
# Disc length: 2757 seconds
#
# Revision: 0
# Processed by: cddbd v1.5.2PL0 Copyright (c) Steve Scherf et al.
# Submitted via: CDex 1.51
#
DISCID=9e0ac30b
DTITLE=Keziah Jones - Captain Rugged
DYEAR=2013
DGENRE=Rhythmic Soul
TTITLE0=Afronewave
TTITLE1=Nollywoodoo
TTITLE2=Hypothetical Wife
TTITLE3=Lunar
TTITLE4=Utopia
TTITLE5=Falling
TTITLE6=Memory
TTITLE7=Rugged
TTITLE8=+ The Free
TTITLE9=Laughter
TTITLE10=Praise
EXTD=YEAR: 2013
EXTT0=
EXTT1=
EXTT2=
EXTT3=
EXTT4=
EXTT5=
EXTT6=
EXTT7=
EXTT8=
EXTT9=
EXTT10=
PLAYORDER=
